# xmcd
#
# Track frame offsets: 
#        150
#        18090
#        36715
#        55170
#        70720
#        89135
#        111405
#        131382
#        149812
#        165680
#        186475
#        207147
#
# Disc length: 3030 seconds
#
# Revision: 0
# Processed by: cddbd v1.5.2PL0 Copyright (c) Steve Scherf et al.
# Submitted via: ExactAudioCopyFreeDBPlugin 1.0
#
DISCID=b90bd40c
DTITLE=คาราบาว - สังคายนา
DYEAR=1900
DGENRE=ไทยเพื่อชีวิต
TTITLE0=เมด อิน ไทยแลนด์
TTITLE1=มหาลัย
TTITLE2=ลูกหิน
TTITLE3=ลูกแก้ว
TTITLE4=หำเทียม
TTITLE5=เดือนเพ็ญ
TTITLE6=ทะเลใจ
TTITLE7=สองเฒ่าผู้ยิ่งใหญ่
TTITLE8=ราชาเงินผ่อน
TTITLE9=นางงามตู้กระจก
TTITLE10=เรฟูจี
TTITLE11=บัวลอย (ถึกความทุย ภาค 5)
EXTD=
EXTT0=
EXTT1=
EXTT2=
EXTT3=
EXTT4=
EXTT5=
EXTT6=
EXTT7=
EXTT8=
EXTT9=
EXTT10=
EXTT11=
PLAYORDER=
